# AST/ASF file generated using VICON BodyLanguage
# -----------------------------------------------
:version 1.10
:name VICON
:units
  mass 1.0
  length 0.45
  angle deg
:documentation
   .ast/.asf automatically generated from VICON data using
   VICON BodyBuilder and BodyLanguage model FoxedUp or BRILLIANT.MOD
:root
   order TX TY TZ RX RY RZ
   axis XYZ
   position 0 0 0  
   orientation 0 0 0 
:bonedata
  begin
     id 1 
     name lhipjoint
     direction 0.623529 -0.717805 0.309788 
     length 2.23224 
     axis 0 0 0  XYZ
  end
  begin
     id 2 
     name lfemur
     direction 0.34202 -0.939693 0  
     length 7.11402  
     axis 0 0 20  XYZ
    dof rx ry rz
    limits (-160.0 20.0)
           (-70.0 70.0)
           (-60.0 70.0)
  end
  begin
     id 3 
     name ltibia
     direction 0.34202 -0.939693 0   
     length 6.78496   
     axis 0 0 20   XYZ
    dof rx
    limits (-10.0 170.0)
  end
  begin
     id 4 
     name lfoot
     direction 0.125078 -0.343648 0.930732   
     length 1.84054   
     axis -90 7.62852e-016 20   XYZ
    dof rx rz
    limits (-45.0 90.0)
           (-70.0 20.0)
  end
  begin
     id 5 
     name ltoes
     direction 1.53565e-011 -4.21893e-011 1   
     length 0.916474   
     axis -90 7.62852e-016 20   XYZ
    dof rx
    limits (-90.0 20.0)
  end
  begin
     id 6 
     name rhipjoint
     direction -0.564688 -0.757748 0.327026   
     length 2.11457  
     axis 0 0 0  XYZ 
  end
  begin
     id 7 
     name rfemur
     direction -0.34202 -0.939693 0   
     length 7.14609   
     axis 0 0 -20   XYZ
    dof rx ry rz
    limits (-160.0 20.0)
           (-70.0 70.0)
           (-70.0 60.0)
  end
  begin
     id 8 
     name rtibia
     direction -0.34202 -0.939693 0   
     length 6.78101   
     axis 0 0 -20   XYZ
    dof rx
    limits (-10.0 170.0)
 end
 begin
     id 9 
     name rfoot
     direction -0.0992671 -0.272734 0.956955   
     length 1.96168  
     axis -90 -7.62852e-016 -20   XYZ
    dof rx rz
    limits (-45.0 90.0)
           (-20.0 70.0)
  end
  begin
     id 10 
     name rtoes
     direction -1.5356e-011 -4.21891e-011 1   
     length 0.982933   
     axis -90 -7.62852e-016 -20   XYZ
    dof rx
    limits (-90.0 20.0)
  end
  begin
     id 11 
     name lowerback
     direction -0.00596953 0.998668 0.0512524   
     length 1.87557   
     axis 0 0 0   XYZ
    dof rx ry rz
    limits (-20.0 45.0)
           (-30.0 30.0)
           (-30.0 30.0)
  end
  begin
     id 12 
     name upperback
     direction 0.00584879 0.999652 0.0257308   
     length 1.87883   
     axis 0 0 0   XYZ
    dof rx ry rz
    limits (-20.0 45.0)
           (-30.0 30.0)
           (-30.0 30.0)
  end
  begin
     id 13 
     name thorax
     direction 0.010104 0.999947 0.00178881   
     length 1.87779   
     axis 0 0 0   XYZ
    dof rx ry rz
    limits (-20.0 45.0)
           (-30.0 30.0)
           (-30.0 30.0)
  end
  begin
     id 14 
     name lowerneck
     direction 0.0120771 0.995934 -0.0892773   
     length 1.40897   
     axis 0 0 0   XYZ
    dof rx ry rz
    limits (-20.0 45.0)
           (-30.0 30.0)
           (-30.0 30.0)
  end
  begin
     id 15 
     name upperneck
     direction -0.030568 0.999465 -0.0116366   
     length 1.38661   
     axis 0 0 0   XYZ
    dof rx ry rz
    limits (-20.0 45.0)
           (-30.0 30.0)
           (-30.0 30.0)
  end
  begin
     id 16
     name head
     direction -0.0170715 0.999854 -0.00104426  
     length 1.47052  
     axis 0 0 0   XYZ
    dof rx ry rz
    limits (-20.0 45.0)
           (-30.0 30.0)
           (-30.0 30.0)
  end
  begin
     id 17 
     name lclavicle
     direction 0.977763 0.206143 0.038532  
     length 3.02424  
     axis 0 0 0   XYZ
    dof ry rz
    limits (-20.0 10.0)
           (0.0 20.0)
  end
  begin
     id 18 
     name lhumerus
     direction 1 -4.48965e-011 -2.62654e-027   
     length 4.68382   
     axis 180 -30 -90   XYZ
    dof rx ry rz
    limits (-60.0 90.0)
           (-90.0 90.0)
           (-90.0 90.0)
  end
  begin
     id 19
     name lradius
     direction 1 -4.48973e-011 -1.54954e-027   
     length 2.98124   
     axis 180 -30 -90   XYZ
    dof rx
    limits (-10.0 170.0)
  end
  begin
     id 20
     name lwrist
     direction 1 -4.48959e-011 7.20928e-028   
     length 1.49062   
     axis -5.52449e-016 90 90   XYZ
    dof ry
    limits (-180.0 0.0)
 end
  begin
     id 21 
     name lhand
     direction 1 -4.48971e-011 1.44186e-027   
     length 0.707595   
     axis -9.20027e-016 90 90   XYZ
    dof rx rz
    limits (-90.0 90.0)
           (-45.0 45.0)
  end
  begin
     id 22 
     name lfingers
     direction 1 -4.48985e-011 2.88371e-027   
     length 0.570481   
     axis -1.84005e-015 90 90   XYZ
    dof rx
    limits (0.0 90.0)
  end
  begin
     id 23
     name lthumb
     direction 0.707107 -6.34929e-011 0.707107   
     length 0.819101   
     axis -90 45 2.85299e-015   XYZ
    dof rx rz
    limits (-45.0 45.0)
           (-45.0 45.0)
  end
  begin
     id 24 
     name rclavicle
     direction -0.958661 0.284411 -0.00895327   
     length 3.11921  
     axis 0 0 0   XYZ 
    dof ry rz
    limits (-10.0 20.0)
           (-20.0 0.0)
  end
  begin
     id 25 
     name rhumerus
     direction -1 -4.48963e-011 -4.22193e-027  
     length 4.75876   
     axis 180 30 90   XYZ
    dof rx ry rz
    limits (-90.0 60.0)
           (-90.0 90.0)
           (-90.0 90.0)
  end
  begin
     id 26 
     name rradius
     direction -1 -4.48968e-011 -1.07616e-027   
     length 2.93293   
     axis 180 30 90   XYZ
    dof rx
    limits (-10.0 170.0)
  end
  begin
     id 27 
     name rwrist
     direction -1 -4.48965e-011 7.20928e-028   
     length 1.46647   
     axis -5.52449e-016 -90 -90   XYZ
    dof ry
    limits (-180.0 0.0)
  end
  begin
     id 28
     name rhand
     direction -1 -4.48971e-011 1.44186e-027   
     length 0.831748   
     axis -9.20027e-016 -90 -90   XYZ
    dof rx rz
    limits (-90.0 90.0)
           (-45.0 45.0)
  end
  begin
     id 29
     name rfingers
     direction -1 -4.48961e-011 2.88371e-027   
     length 0.670577   
     axis -1.84005e-015 -90 -90   XYZ
    dof rx
    limits (0.0 90.0)
  end
  begin
     id 30
     name rthumb
     direction -0.707107 -6.34929e-011 0.707107   
     length 0.962818   
     axis -90 -45 -2.85299e-015   XYZ
    dof rx rz
    limits (-45.0 45.0)
           (-45.0 45.0)
  end
:hierarchy
  begin
    root lhipjoint rhipjoint lowerback
    lhipjoint lfemur
    lfemur ltibia
    ltibia lfoot
    lfoot ltoes
    rhipjoint rfemur
    rfemur rtibia
    rtibia rfoot
    rfoot rtoes
    lowerback upperback
    upperback thorax
    thorax lowerneck lclavicle rclavicle
    lowerneck upperneck
    upperneck head
    lclavicle lhumerus
    lhumerus lradius
    lradius lwrist
    lwrist lhand lthumb
    lhand lfingers
    rclavicle rhumerus
    rhumerus rradius
    rradius rwrist
    rwrist rhand rthumb
    rhand rfingers
  end

#!OML:ASF E:\id_vita\Project 1\Capture day 1\Session 1\Female.ASF
:FULLY-SPECIFIED
:DEGREES
222
root 21.8837 14.9354 -0.0675833 16.1104 -84.7453 23.0003
lowerback 6.31036 0.106673 -2.25236
upperback -5.96109 -0.0793505 1.03886
thorax -9.88769 0.135132 2.39153
lowerneck 2.256 1.38363 -3.17297
upperneck -36.7617 -0.131995 0.491263
head -12.5878 -0.45616 0.942654
rclavicle 4.57205e-015 -1.94809e-014
rhumerus -1.42778 8.60722 -26.9118
rradius 130.993
rwrist 3.54925
rhand -52.6768 30.919
rfingers 7.12502
rthumb -25.1561 2.5566
lclavicle 4.57205e-015 -1.94809e-014
lhumerus 1.31185 2.48339 35.8691
lradius 124.243
lwrist 3.85018
lhand -30.0771 39.3236
lfingers 7.12502
lthumb -3.39196 69.2763
rfemur -78.3459 0.781994 17.8172
rtibia 60.1555
rfoot -15.0431 -15.0933
rtoes -14.5215
lfemur -78.9095 -10.9582 -16.3661
ltibia 61.1662
lfoot -17.7296 19.4429
ltoes 10.2649
223
root 21.9144 15.0229 -0.0675928 16.0575 -84.7752 22.4102
lowerback 5.8432 0.118886 -2.28453
upperback -5.96756 -0.0585979 1.05112
thorax -9.61731 0.142476 2.4163
lowerneck 2.87557 1.42637 -3.55613
upperneck -36.6267 0.0356205 0.8828
head -12.6616 -0.352245 1.14046
rclavicle -7.95139e-016 -1.11319e-014
rhumerus -1.17434 7.60688 -26.5423
rradius 131.084
rwrist 1.64364
rhand -50.6998 32.6587
rfingers 7.12502
rthumb -23.2606 4.04361
lclavicle -7.95139e-016 -1.11319e-014
lhumerus 1.99952 2.71811 36.2075
lradius 123.844
lwrist 3.53645
lhand -30.0131 39.1142
lfingers 7.12502
lthumb -3.33011 69.0679
rfemur -76.9897 0.859338 17.8188
rtibia 58.7571
rfoot -14.4089 -16.3282
rtoes -16.8864
lfemur -77.571 -10.818 -16.5936
ltibia 59.8281
lfoot -17.4108 19.3567
ltoes 10.1588
224
root 21.9439 15.1204 -0.0733982 14.105 -84.8833 23.439
lowerback 5.73675 0.188748 -2.54648
upperback -5.91644 0.00785403 0.993789
thorax -9.50346 0.188908 2.492
lowerneck 3.36394 1.39902 -3.58027
upperneck -36.3477 0.0815428 1.02904
head -12.641 -0.322492 1.18889
rclavicle -1.25234e-014 -3.10104e-014
rhumerus -1.15577 7.14574 -26.3374
rradius 130.914
rwrist 1.60832
rhand -50.6753 31.9141
rfingers 7.12502
rthumb -23.2371 3.29604
lclavicle -1.25234e-014 -3.10104e-014
lhumerus 2.72135 2.827 36.5141
lradius 123.442
lwrist 3.35846
lhand -30.465 38.7023
lfingers 7.12502
lthumb -3.76653 68.6487
rfemur -75.294 0.996569 17.6764
rtibia 57.346
rfoot -14.086 -17.4031
rtoes -19.942
lfemur -75.8398 -10.638 -17.0393
ltibia 58.4917
lfoot -17.467 18.6152
ltoes 10.414
225
root 21.9699 15.2064 -0.0796614 11.4813 -85.0579 25.2103
lowerback 5.6918 0.231041 -2.88027
upperback -6.0519 0.0204103 0.921305
thorax -9.6302 0.217253 2.60187
lowerneck 3.91688 1.39097 -3.41212
upperneck -35.775 0.165481 1.02253
head -12.5071 -0.273551 1.13265
rclavicle 1.51076e-014 2.14687e-014
rhumerus -1.34853 7.2059 -26.2407
rradius 130.685
rwrist 2.39307
rhand -51.5745 30.5651
rfingers 7.12502
rthumb -24.0996 2.05856
lclavicle 1.51076e-014 2.14687e-014
lhumerus 3.34648 2.87265 36.7231
lradius 123.012
lwrist 3.3518
lhand -30.5421 38.2613
lfingers 7.12502
lthumb -3.84097 68.2064
rfemur -73.7008 1.14683 17.5114
rtibia 55.9377
rfoot -13.6342 -15.5743
rtoes -16.0608
lfemur -74.2127 -10.4623 -17.4644
ltibia 57.1808
lfoot -17.6366 18.9119
ltoes 8.19758
226
root 21.9942 15.2862 -0.0809412 10.2299 -85.1876 25.7176
lowerback 5.52632 0.260342 -3.0342
upperback -6.25378 0.035802 0.877345
thorax -9.7577 0.23542 2.64044
lowerneck 4.45174 1.35126 -3.21477
upperneck -35.095 0.200215 0.969133
head -12.3252 -0.242774 1.05722
rclavicle 1.47101e-014 1.15295e-014
rhumerus -1.58665 7.24105 -26.1629
rradius 130.56
rwrist 2.8426
rhand -52.0695 29.4731
rfingers 7.12502
rthumb -24.5741 1.03023
lclavicle 1.47101e-014 1.15295e-014
lhumerus 4.19924 2.80993 37.0719
lradius 122.375
lwrist 3.28479
lhand -30.3236 38.1388
lfingers 7.12502
lthumb -3.62991 68.0876
rfemur -72.2218 1.23916 17.49
rtibia 54.5107
rfoot -13.306 -15.0115
rtoes -15.0071
lfemur -72.7553 -10.3229 -17.7181
ltibia 55.8821
lfoot -17.553 19.0322
ltoes 7.60624
